<svg viewBox="0 0 64 64" xmlns="http://www.w3.org/2000/svg"><defs><linearGradient id="n" x1="0" y1="0" x2="1" y2="1"><stop offset="0" stop-color="#7980F5"/><stop offset="1" stop-color="#3F4AC8"/></linearGradient><linearGradient id="hl" x1="0" y1="0" x2=".4" y2=".4"><stop offset="0" stop-color="#FFF" stop-opacity=".4"/><stop offset="1" stop-color="#FFF" stop-opacity="0"/></linearGradient><linearGradient id="sh" x1=".6" y1=".6" x2="1" y2="1"><stop offset="0" stop-color="#000" stop-opacity="0"/><stop offset="1" stop-color="#000" stop-opacity=".3"/></linearGradient></defs><rect width="64" height="64" rx="14" fill="url(#n)"/><rect width="64" height="64" rx="14" fill="url(#hl)"/><rect width="64" height="64" rx="14" fill="url(#sh)"/><g fill="rgba(255,255,255,.95)"><path d="M44 18 Q40 14 32 13 L31.5 14 Q35 15 38 17 Q30 14 22 17 Q25 15 28.5 14 L28 13 Q20 14 16 18 Q12 26 12 36 Q17 42 24 43 L26 40 Q22 39 20 36 Q21 37 23 37 Q32 39 41 37 Q43 37 44 36 Q42 39 38 40 L40 43 Q47 42 52 36 Q52 26 48 18 Z"/><circle cx="24" cy="29" r="3" fill="#5865F2"/><circle cx="40" cy="29" r="3" fill="#5865F2"/></g></svg>
